# xmcd CD database file
#
# Track frame offsets:
#	150
#	15893
#	50847
#	85086
#	99684
#	125012
#	162186
#	187613
#	207990
#
# Disc length: 3282 seconds
#
# Revision: 0
# Processed by: cddbd v1.5.2PL0 Copyright (c) Steve Scherf et al.
# Submitted via: CDex 1.91
#
DISCID=6b0cd009
DTITLE=Craig Taborn - Daylight Ghosts
DYEAR=2017
DGENRE=Jazz
TTITLE0=The Shining One
TTITLE1=Abandoned Reminder
TTITLE2=Daylight Ghosts
TTITLE3=New Glory
TTITLE4=The Great Silence
TTITLE5=Ancient
TTITLE6=Jamaican Farewell
TTITLE7=Subtle Living Equations
TTITLE8=Phantom Ratio
EXTD=YEAR: 2017
EXTT0=
EXTT1=
EXTT2=
EXTT3=
EXTT4=
EXTT5=
EXTT6=
EXTT7=
EXTT8=
PLAYORDER=
